<?xml version="1.0" encoding="UTF-8"?>
<svg id="Layer_1" data-name="Layer 1" xmlns="http://www.w3.org/2000/svg" viewBox="0 0 640 640">
  <path d="M320,45c-28.41,0-55.81,4.31-81.58,12.31,5.94,39.73,40.2,70.19,81.58,70.19s75.64-30.47,81.58-70.19c-25.78-8-53.18-12.31-81.58-12.31Z"/>
  <path d="M320,595c28.41,0,55.81-4.31,81.58-12.31-5.94-39.73-40.2-70.19-81.58-70.19s-75.64,30.47-81.58,70.19c25.78,8,53.18,12.31,81.58,12.31Z"/>
  <path d="M514.45,125.55c-20.09-20.09-42.51-36.41-66.39-48.99-23.89,32.29-21.21,78.06,8.05,107.32,29.26,29.26,75.03,31.94,107.32,8.05-12.57-23.88-28.9-46.3-48.99-66.39Z"/>
  <path d="M125.55,514.45c20.09,20.09,42.51,36.41,66.39,48.99,23.89-32.29,21.21-78.06-8.05-107.32-29.26-29.26-75.03-31.94-107.32-8.05,12.57,23.88,28.9,46.3,48.99,66.39Z"/>
  <path d="M45,320c0,28.41,4.31,55.81,12.31,81.58,39.73-5.94,70.19-40.2,70.19-81.58s-30.47-75.64-70.19-81.58c-8,25.78-12.31,53.18-12.31,81.58Z"/>
  <path d="M595,320c0-28.41-4.31-55.81-12.31-81.58-39.73,5.94-70.19,40.2-70.19,81.58s30.47,75.64,70.19,81.58c8-25.78,12.31-53.18,12.31-81.58Z"/>
  <path d="M125.55,125.55c-20.09,20.09-36.41,42.51-48.99,66.39,32.29,23.89,78.06,21.21,107.32-8.05,29.26-29.26,31.94-75.03,8.05-107.32-23.88,12.57-46.3,28.9-66.39,48.99Z"/>
  <path d="M514.45,514.45c20.09-20.09,36.41-42.51,48.99-66.39-32.29-23.89-78.06-21.21-107.32,8.05-29.26,29.26-31.94,75.03-8.05,107.32,23.88-12.57,46.3-28.9,66.39-48.99Z"/>
  <circle cx="320" cy="172.19" r="27.5"/>
  <circle cx="320" cy="467.81" r="27.5"/>
  <circle cx="424.52" cy="215.48" r="27.5"/>
  <circle cx="215.48" cy="424.52" r="27.5"/>
  <circle cx="215.48" cy="215.48" r="27.5"/>
  <circle cx="424.52" cy="424.52" r="27.5"/>
  <circle cx="172.19" cy="320" r="27.5"/>
  <circle cx="467.81" cy="320" r="27.5"/>
</svg>